<svg width="1160" height="281" viewBox="0 0 1160 281" fill="none" xmlns="http://www.w3.org/2000/svg">
<path d="M1160 0V280.78H1084.14L968.48 154.207V280.78H905.856L875.875 203.506V0H951.732L1067.39 132.409V0H1160Z" fill="#8F9424"/>
<path d="M875.875 203.518L905.856 280.791H875.875V203.518Z" fill="#1D662E"/>
<path d="M875.887 203.506V280.767H806.954L795.636 246.812H692.132L680.394 280.767H640.931L667.791 202.811H611.75L690.467 0H796.908L875.887 203.506ZM770.088 171.387L744.107 95.1234L718.126 171.387H770.088Z" fill="#5480BA"/>
<path d="M667.784 202.828L640.924 280.784H581.5L611.743 202.828H667.784Z" fill="#6B367D"/>
<path d="M611.744 202.824L581.501 280.78H523.978L493.656 202.614V0H586.275V202.824H611.744Z" fill="#E04580"/>
<path d="M493.656 202.619L523.978 280.785H493.656V202.619Z" fill="#6B367D"/>
<path d="M493.646 202.614V280.767H425.08L413.762 246.812H310.258L298.52 280.767H199.633L278.336 77.9427H308.579V0H415.034L493.659 202.614H493.646ZM388.188 171.387L362.22 95.1234L336.239 171.387H388.188Z" fill="#8F9424"/>
<path d="M308.575 0V77.9558H278.332L308.575 0Z" fill="#1D662E"/>
<path d="M308.571 0L278.327 77.9558H199.624V280.78H107.006V77.9558H0V0H308.571Z" fill="#5480BA"/>
</svg>
